<svg width="510.12" height="510.12" version="1.1" viewBox="0 0 134.97 134.97" xmlns="http://www.w3.org/2000/svg">
 <g>
  <rect x="-5.8386" y="-4.0421" width="147.76" height="146.86" style="fill:#fff"/>
 </g>
 <g transform="translate(-101.29,-45.67)">
  <circle cx="168.78" cy="113.15" r="57.547" style="fill:none;stroke-width:4;stroke:#0080e2"/>
  <circle cx="193.25" cy="99.831" r="24.854" style="fill:none;stroke-width:4;stroke:#0080e2"/>
  <path d="m186.64 76.397s-12.046-1.6024-17.622-3.8518c-5.1966-2.0963-14.317-8.8104-14.317-8.8104v50.082s4.8069-4.1396 7.5645-5.661c2.0818-1.1486 6.6609-2.552 6.6609-2.552" style="fill:none;stroke-width:4;stroke:#0080e2"/>
  <path d="m188.9 124.59v41.577" style="fill:none;stroke-width:4;stroke:#0080e2"/>
  <path d="m203.46 122.32v35.719" style="fill:none;stroke-width:4;stroke:#0080e2"/>
  <path d="m115.48 131.58h40.916v36.947s-19.028-6.6233-26.253-13.247c-6.8474-6.2779-14.663-23.7-14.663-23.7z" style="fill:#0080e2;stroke-width:4;stroke:#0080e2"/>
  <circle cx="193.84" cy="100.29" r="8.2375" style="fill:#0080e2;stroke-width:1.3257;stroke:#0080e2"/>
  <path d="m185.31 98.846s-3.7863-1.7883-5.8114-1.7718c-1.8452.01511-3.771.60086-5.268 1.7009-.54328.39923-1.5374 2-1.0522 2.9103.41057.77012 1.6643.9758 2.5404.63325 1.477-.57749 2.278-2.168 3.7415-2.405 2.0027-.32426 5.8969 1.5073 5.8969 1.5073l.0709-2.5513" style="fill:#0080e2;stroke-width:.26458px;stroke:#0080e2"/>
  <path d="m186.67 105.17s-3.0013 2.92-3.6952 4.8226c-.63222 1.7336-.75817 3.7426-.25221 5.5301.18363.64871 1.3347 2.1406 2.3573 2.0049.86514-.1148 1.497-1.2171 1.483-2.1577-.0235-1.5857-1.2327-2.8931-.94196-4.3469.39782-1.9894 3.4774-4.9953 3.4774-4.9953l-2.3648-.96012" style="fill:#0080e2;stroke-width:.26458px;stroke:#0080e2"/>
  <path d="m193.42 108.9s1.3465 3.965 2.7662 5.4092c1.2936 1.316 3.0534 2.2931 4.8848 2.6046.66466.11306 2.5065-.28513 2.8235-1.2668.26817-.83049-.45554-1.8747-1.3108-2.2664-1.4419-.66032-3.142-.13044-4.3298-1.0178-1.6253-1.2143-3.0158-5.2868-3.0158-5.2868l-1.8833 1.7226" style="fill:#0080e2;stroke-width:.26458px;stroke:#0080e2"/>
  <path d="m201.03 105.78s3.8083 1.741 5.833 1.6992c1.8449-.0381 3.7633-.64783 5.2465-1.7664.53829-.40594 1.5124-2.019 1.0158-2.9232-.42015-.76493-1.6764-.95497-2.5481-.60153-1.4697.59582-2.2508 2.1962-3.7113 2.4514-1.9985.34918-5.9152-1.4337-5.9152-1.4337l-.0391 2.552" style="fill:#0080e2;stroke-width:.26458px;stroke:#0080e2"/>
  <path d="m202.53 97.834s3.8379-1.6748 5.1577-3.2107c1.2026-1.3995 2.0286-3.2353 2.1851-5.0863.0568-.6718-.49465-2.4737-1.4994-2.7071-.85009-.19747-1.8299.61139-2.1483 1.4965-.53688 1.4922.13392 3.1419-.65053 4.4-1.0735 1.7216-5.0148 3.4491-5.0148 3.4491l1.8747 1.732" style="fill:#0080e2;stroke-width:.26458px;stroke:#0080e2"/>
  <path d="m197.48 92.427s1.7917-3.7847 1.7769-5.8098c-.0135-1.8452-.59758-3.7716-1.6963-5.2696-.39875-.54364-1.9986-1.5392-2.9094-1.0547-.77047.40991-.97725 1.6635-.63548 2.5399.57617 1.4775 2.166 2.2799 2.4017 3.7436.32249 2.003-1.5124 5.8955-1.5124 5.8955l2.5513.07313" style="fill:#0080e2;stroke-width:.26458px;stroke:#0080e2"/>
  <path d="m190.1 92.433s-1.7553-3.8017-3.3187-5.0889c-1.4246-1.1729-3.2773-1.9599-5.1313-2.0774-.67285-.04267-2.4627.54667-2.6749 1.5562-.17953.85407.64982 1.8166 1.5415 2.1163 1.5032.50531 3.1384-.20012 4.4127.55764 1.7438 1.0369 3.5541 4.941 3.5541 4.941l1.6921-1.9108" style="fill:#0080e2;stroke-width:.26458px;stroke:#0080e2"/>
  <path d="m181.82 103.57s-2.4971 1.7901-3.5697 3.0179c-.84959.97256-1.6886 3.1089-1.8607 4.027-.19037 1.0153.48836 2.197 1.3746 2.2945.71267.0785 1.3897-.92429 1.4803-1.5605.15598-1.0954-.35471-1.2062.0535-3.1092.16767-.78162 2.5219-4.6697 2.5219-4.6697z" style="fill:#0080e2;stroke-width:.26458px;stroke:#0080e2"/>
  <path d="m190.48 111.86s.12513 3.07.56241 4.6405c.3464 1.2441 1.6713 3.1182 2.3441 3.7661.7441.71658 2.1044.79808 2.6725.11092.45689-.55255-.01-1.669-.49152-2.094-.82992-.73182-1.2028-.36577-2.5693-1.7518-.56121-.56928-2.5183-4.6717-2.5183-4.6717z" style="fill:#0080e2;stroke-width:.26458px;stroke:#0080e2"/>
  <path d="m200.79 109.18s2.4767 1.8183 3.9767 2.4569c1.1882.50581 3.4795.64033 4.4056.51907 1.0243-.13413 1.937-1.146 1.7547-2.0188-.14655-.70185-1.3102-1.0339-1.9428-.92292-1.0898.19168-1.0365.71151-2.9723.91404-.79505.0832-5.2218-.94823-5.2218-.94823z" style="fill:#0080e2;stroke-width:.26458px;stroke:#0080e2"/>
  <path d="m205.88 100.78s2.9729-.77612 4.4142-1.5379c1.1417-.60342 2.6907-2.2971 3.1804-3.0925.54166-.87964.33158-2.2261-.46082-2.6348-.63718-.32873-1.6286.36524-1.9413.92622-.53827.96675-.10119 1.2531-1.1644 2.8834-.43666.66959-4.0282 3.4555-4.0282 3.4555z" style="fill:#0080e2;stroke-width:.26458px;stroke:#0080e2"/>
  <path d="m201.62 91.581s1.8056-2.486 2.4364-3.9893c.4997-1.1908.62245-3.4827.49644-4.4082-.13939-1.0236-1.156-1.9311-2.0278-1.7443-.70109.15015-1.0271 1.3155-.91293 1.9476.19728 1.0888.71683 1.0329.92929 2.9676.0872.79461-.92139 5.2266-.92139 5.2266z" style="fill:#0080e2;stroke-width:.26458px;stroke:#0080e2"/>
  <path d="m192.35 88.691s-.66735-2.9992-1.3761-4.4673c-.56144-1.1629-2.1976-2.7726-2.9746-3.2909-.85934-.57333-2.2125-.41242-2.6498.36457-.35172.62479.30569 1.6408.85491 1.9737.94652.57311 1.2486.14675 2.8391 1.2686.6532.46082 3.3065 4.1513 3.3065 4.1513z" style="fill:#0080e2;stroke-width:.26458px;stroke:#0080e2"/>
  <path d="m184.06 93.797s-2.6369-1.577-4.1904-2.0715c-1.2305-.39168-3.5243-.30985-4.4349-.10193-1.0071.22998-1.8204 1.3234-1.5568 2.1751.21199.68494 1.4018.90589 2.0211.73588 1.0669-.29345.96493-.80596 2.873-1.1899.78369-.15762 5.2879.45231 5.2879.45231z" style="fill:#0080e2;stroke-width:.26458px;stroke:#0080e2"/>
  <path d="m138.49 75.59s-.63975-.07878-1.8681.17143c-.97302.19822-2.4818 1.0681-3.0149 1.5216-.5896.50154-.72487 1.466-.22803 1.8967.39951.3464 1.2811.05751 1.6329-.26852.60589-.56201.34499-.84144 1.4815-1.7597.93715-.80359.97425-1.0636 1.9967-1.5614z" style="fill:#0080e2;stroke-width:.19583px;stroke:#0080e2"/>
  <path d="m125.11 88.171s-.58157.27795-1.4822 1.15c-.71336.69078-1.5168 2.236-1.722 2.9051-.22696.74004.17812 1.6256.82869 1.7212.52315.07691 1.1106-.64105 1.2317-1.1052.20814-.79977-.16215-.89485.30144-2.2805.35729-1.1817.2486-1.4208.84238-2.3907z" style="fill:#0080e2;stroke-width:.19583px;stroke:#0080e2"/>
  <path d="m136.82 83.68s-.65123.23541-1.7128 1.0902c-.8409.67712-1.8803 2.2915-2.1788 3.0084-.33014.79297-.006 1.827.67317 2.0149.54646.15117 1.2569-.57196 1.4413-1.072.31735-.86165-.0646-1.0138.59465-2.4936.52173-1.2668.43505-1.546 1.1825-2.5479z" style="fill:#0080e2;stroke-width:.21402px;stroke:#0080e2"/>
  <path d="m141.82 93.657s-.60225.3002-1.584 1.3903c-.77766.86347-1.7389 2.9221-2.015 3.8364-.30532 1.0112-.006 2.3298.62254 2.5695.50536.19277 1.1624-.72937 1.3329-1.367.29348-1.0988-.0597-1.2927.54992-3.1799.4825-1.6155.40234-1.9714 1.0936-3.2492z" style="fill:#0080e2;stroke-width:.23242px;stroke:#0080e2"/>
  <path d="m132.37 104.59s-.36063.29904-.84353 1.0768c-.3825.61605-.68201 1.8565-.71156 2.3689-.0327.56667.40315 1.1273.87613 1.0824.38034-.0361.66983-.64961.67536-1.0013.009-.60596-.26691-.60938-.1786-1.6771.0486-.90395-.0686-1.0554.18221-1.8496z" style="fill:#0080e2;stroke-width:.14254px;stroke:#0080e2"/>
  <path d="m121.93 102.78s-.48765.42152-1.1263 1.5002c-.50587.85451-.87319 2.557-.89464 3.2565-.0237.77369.60065 1.5211 1.2534 1.4416.52489-.0638.90216-.91131.89646-1.391-.0102-.82634-.39246-.82037-.31079-2.2792.0329-1.2341-.13504-1.436.18192-2.5282z" style="fill:#0080e2;stroke-width:.19583px;stroke:#0080e2"/>
  <path d="m149.27 116.43s-.48765.42152-1.1263 1.5002c-.50587.85451-.87319 2.557-.89464 3.2565-.0237.77369.60065 1.5211 1.2534 1.4416.52489-.0638.90216-.91131.89646-1.391-.0102-.82634-.39246-.82037-.31079-2.2792.0329-1.2341-.13504-1.436.18192-2.5282z" style="fill:#0080e2;stroke-width:.19583px;stroke:#0080e2"/>
  <path d="m150.74 102.21s-.64176.0601-1.788.56769c-.90797.4021-2.1954 1.575-2.619 2.1322-.46845.61621-.39396 1.5872.18363 1.9015.46442.25277 1.2636-.21828 1.5374-.61214.47142-.67875.15671-.89581 1.0701-2.0362.74321-.98571.72371-1.2476 1.6158-1.9529z" style="fill:#0080e2;stroke-width:.19583px;stroke:#0080e2"/>
  <path d="m149.88 87.643s-.63712-.0977-1.8724.11604c-.97848.16934-2.5124.99416-3.0587 1.4316-.60419.48386-.76796 1.4438-.28408 1.8891.38904.35808 1.2788.09542 1.6401-.22007.62227-.5438.36976-.83085 1.533-1.715.96053-.77549 1.0053-1.0343 2.0421-1.5016z" style="fill:#0080e2;stroke-width:.19583px;stroke:#0080e2"/>
  <path d="m150.19 69.469s-.57421-.29283-1.8141-.4778c-.98215-.1465-2.6975.15493-3.3535.39871-.72557.26966-1.1825 1.1297-.86292 1.7043.25691.46213 1.1841.49216 1.6262.30609.76155-.32089.61196-.67271 1.994-1.1469 1.1554-.43464 1.2792-.66632 2.4103-.78438z" style="fill:#0080e2;stroke-width:.19583px;stroke:#0080e2"/>
  <path d="m150.89 78.707s-.57421-.29283-1.8141-.4778c-.98215-.1465-2.6975.15493-3.3535.39871-.72557.26966-1.1825 1.1297-.86292 1.7043.25691.46213 1.1841.49216 1.6262.30609.76155-.32089.61196-.67271 1.994-1.1469 1.1554-.43464 1.2792-.66632 2.4103-.78438z" style="fill:#0080e2;stroke-width:.19583px;stroke:#0080e2"/>
  <path d="m141.71 108.88s-.82799.58769-1.9124 2.0917c-.85892 1.1914-1.4826 3.565-1.519 4.5403-.0402 1.0787 1.0198 2.1207 2.1282 2.01.89122-.0889 1.5318-1.2706 1.5221-1.9393-.0173-1.1521-.66637-1.1438-.5277-3.1778.0559-1.7206-.22929-2.0021.30889-3.5249z" style="fill:#0080e2;stroke-width:.30131px;stroke:#0080e2"/>
  <path d="m131.5 94.641s-.58738.36994-1.3739 1.3321c-.62301.76211-1.1108 2.2967-1.159 2.9305-.0533.70103.65663 1.3946 1.427 1.339.61949-.0446 1.091-.80363 1.1-1.2387.0146-.74962-.43474-.75386-.2909-2.0748.0792-1.1183-.11174-1.3057.29678-2.2881z" style="fill:#0080e2;stroke-width:.20233px;stroke:#0080e2"/>
  <path d="m120 115.51s-.48171.49983-1.015 1.6223c-.42238.88914-.52854 2.4959-.4235 3.1228.11612.69339.97147 1.1967 1.7061.95835.59079-.19164.86682-1.0415.77138-1.4661-.16533-.73131-.60261-.62782-.77926-1.9447-.19088-1.1047-.42114-1.2409-.25976-2.2926z" style="fill:#0080e2;stroke-width:.20233px;stroke:#0080e2"/>
  <path d="m130.71 116s-.48612.49554-1.0293 1.6132c-.43025.88535-.55066 2.4911-.45118 3.1189.10997.6944.96081 1.2053 1.6976.97345.59246-.18639.87602-1.0338.78435-1.4592-.15884-.73276-.59702-.63315-.76197-1.9516-.18108-1.1064-.41012-1.2446-.23942-2.2948z" style="fill:#0080e2;stroke-width:.20233px;stroke:#0080e2"/>
  <path d="m156.55 135.32s5.2147-1.536 7.843-1.2284c3.7181.43505 7.7007 2.7452 11.434 3.0238 6.7575.50428 11.655-3.4632 18.426-3.2128 4.6983.17376 10.04 3.0956 14.741 3.1183 4.9512.0239 13.891-3.7798 13.891-3.7798" style="fill:none;stroke-width:5;stroke:#0080e2"/>
  <path d="m157.43 144.47s4.799-1.5576 7.2177-1.2457c3.4217.44118 7.7482 2.5004 11.184 2.7829 6.2187.51139 11.198-3.2285 17.43-2.9746 4.3238.17621 9.1447 2.7613 13.471 2.7842 4.5564.0242 10.988-2.4156 10.988-2.4156" style="fill:none;stroke-width:5;stroke:#0080e2"/>
  <path d="m156.45 154.29s4.799-1.5576 7.2177-1.2457c3.4217.44118 7.7482 2.5004 11.184 2.7829 6.2187.51139 11.198-3.2285 17.43-2.9746 4.3238.17621 9.1447 2.7613 13.471 2.7842 4.5564.0242-4.3097-.70158-4.3097-.70158" style="fill:none;stroke-width:5;stroke:#0080e2"/>
  <path d="m156.16 162.89s4.799-1.5576 7.2177-1.2457c3.4217.44118 7.7482 2.5004 11.184 2.7829 3.821.31421 10.179-2.1192 15.596-2.7447 3.399-.39255 4.6037.7336 6.9063 1.4329" style="fill:none;stroke-width:5;stroke:#0080e2"/>
 </g>
</svg>
